<?xml version="1.0" encoding="UTF-8" standalone="no"?>
<!-- Created with Vectornator for iOS (http://vectornator.io/) -->

<svg
   xmlns:vectornator="http://vectornator.io"
   xmlns:dc="http://purl.org/dc/elements/1.1/"
   xmlns:cc="http://creativecommons.org/ns#"
   xmlns:rdf="http://www.w3.org/1999/02/22-rdf-syntax-ns#"
   xmlns:svg="http://www.w3.org/2000/svg"
   xmlns="http://www.w3.org/2000/svg"
   xmlns:sodipodi="http://sodipodi.sourceforge.net/DTD/sodipodi-0.dtd"
   xmlns:inkscape="http://www.inkscape.org/namespaces/inkscape"
   style="fill-rule:evenodd;clip-rule:evenodd;stroke-linecap:round;stroke-linejoin:round;"
   xml:space="preserve"
   version="1.1"
   viewBox="0 0 300 300"
   id="svg35"
   sodipodi:docname="logo.svg"
   inkscape:version="0.92.3 (2405546, 2018-03-11)"><sodipodi:namedview
   pagecolor="#ffffff"
   bordercolor="#666666"
   borderopacity="1"
   objecttolerance="10"
   gridtolerance="10"
   guidetolerance="10"
   inkscape:pageopacity="0"
   inkscape:pageshadow="2"
   inkscape:window-width="1409"
   inkscape:window-height="706"
   id="namedview37"
   showgrid="false"
   inkscape:zoom="3.1466666"
   inkscape:cx="159.44177"
   inkscape:cy="145.08419"
   inkscape:window-x="2398"
   inkscape:window-y="336"
   inkscape:window-maximized="0"
   inkscape:current-layer="svg35" />
<metadata
   id="metadata2">
<vectornator:setting
   key="DisplayWhiteBackground"
   value="0" />
<vectornator:setting
   key="RulersVisible"
   value="1" />
<vectornator:setting
   key="SnapToEdges"
   value="0" />
<vectornator:setting
   key="Units"
   value="Pixels" />
<vectornator:setting
   key="DynamicGuides"
   value="0" />
<vectornator:setting
   key="SnapToPoints"
   value="0" />
<vectornator:setting
   key="CMYKEnabledKey"
   value="0" />
<vectornator:setting
   key="SnapToGrid"
   value="0" />
<vectornator:setting
   key="SnapToGuides"
   value="1" />
<vectornator:setting
   key="ShowGrid"
   value="1" />
<vectornator:setting
   key="GridSpacing"
   value="36" />
<rdf:RDF><cc:Work
     rdf:about=""><dc:format>image/svg+xml</dc:format><dc:type
       rdf:resource="http://purl.org/dc/dcmitype/StillImage" /><dc:title /></cc:Work></rdf:RDF></metadata>
<defs
   id="defs4">


















</defs>

<path
   inkscape:connector-curvature="0"
   style="clip-rule:evenodd;opacity:1;fill:#a8a69d;fill-rule:evenodd;stroke:#000000;stroke-width:1.99999988;stroke-linecap:round;stroke-linejoin:round"
   d="m 13.015828,137.45049 -0.05325,0.31198 c -2.3424,13.64456 14.685877,27.82663 38.033528,31.67592 v 0 c 23.347658,3.84931 44.172214,-4.09105 46.514197,-17.73454 l 0.0537,-0.31306 c 2.341983,-13.6435 -14.686294,-27.82555 -38.033945,-31.67484 v 0 c -23.346167,-3.84996 -44.171796,4.08997 -46.514197,17.73454 z"
   id="path16-2" /><g
   aria-label="R"
   transform="scale(1.0003218,0.9996783)"
   style="font-style:normal;font-variant:normal;font-weight:600;font-stretch:normal;font-size:23.13201714px;line-height:1.25;font-family:Remissis;-inkscape-font-specification:'Remissis Semi-Bold';letter-spacing:0px;word-spacing:0px;fill:#fbe656;fill-opacity:1;stroke:#000000;stroke-width:3;stroke-miterlimit:4;stroke-dasharray:none;stroke-opacity:1"
   id="text846"><path
     style="font-size:231.32017517px;fill:#fbe656;fill-opacity:1;stroke:#000000;stroke-width:3;stroke-miterlimit:4;stroke-dasharray:none;stroke-opacity:1"
     d="m 126.69967,200.50442 c 0.0745,15.27498 0.14903,30.54996 0.22354,45.82494 -12.49129,0.61686 -24.98258,1.23371 -37.473869,1.85057 L 87.367459,93.195408 C 115.24254,79.967138 147.50422,74.998582 177.91485,80.87038 c 22.47966,3.610153 43.6798,20.02107 48.30255,43.03278 4.49286,21.6303 0.0608,46.83888 -17.68154,61.51671 -6.51367,2.22791 -4.82192,6.73663 -2.74468,11.57077 5.47865,16.36913 10.95729,32.73827 16.43594,49.1074 -12.02865,2.69874 -24.0573,5.39747 -36.08595,8.09621 -6.55407,-17.58033 -13.10814,-35.16067 -19.66221,-52.741 -11.29285,3.21499 -32.36923,-3.46717 -39.77929,-0.94883 z m -0.008,-82.58128 v 49.0634 c 17.15143,2.72318 36.70492,5.17538 52.04704,-4.85772 12.26897,-8.66675 14.1217,-28.8505 4.1484,-39.88195 -13.14417,-9.78245 -44.71293,-14.82749 -56.19544,-4.32373 z"
     id="path892"
     inkscape:connector-curvature="0"
     sodipodi:nodetypes="ccccccccccccccccc" /></g><path
   inkscape:connector-curvature="0"
   style="clip-rule:evenodd;opacity:1;fill:#cbcbc8;fill-rule:evenodd;stroke:#000000;stroke-width:1.99999988;stroke-linecap:round;stroke-linejoin:round"
   d="m 33.490129,92.247454 -0.208448,0.230093 C 24.168717,102.5449 30.947522,123.68065 48.421604,139.68639 v 0 c 17.474082,16.00574 39.026229,20.81979 48.139201,10.75243 l 0.208866,-0.23116 c 9.112559,-10.06628 2.333741,-31.20204 -15.140341,-47.20777 v 0 C 64.156337,86.994566 42.603101,82.1801 33.490129,92.247454 Z"
   id="path22-0" /><path
   style="clip-rule:evenodd;opacity:1;fill:#030300;fill-rule:evenodd;stroke:#000000;stroke-width:2.00000024;stroke-linecap:round;stroke-linejoin:round"
   d="m 210.27192,95.07012 -6.79491,-6.015245 c 10.37293,-11.248091 27.07499,-25.33294 40.79397,-31.758866 -7.81099,5.476783 -29.9057,30.283694 -33.99906,37.774111 z"
   id="path26-5"
   inkscape:connector-curvature="0"
   sodipodi:nodetypes="cccc" /><path
   style="clip-rule:evenodd;opacity:1;fill:#030300;fill-rule:evenodd;stroke:#000000;stroke-width:2.00000024;stroke-linecap:round;stroke-linejoin:round"
   d="m 197.32038,85.159528 -7.4218,-3.410681 c 9.03223,-12.347898 24.78673,-27.718823 37.68916,-35.654171 -8.1278,7.527117 -27.08439,31.249253 -30.26736,39.064852 z"
   id="path28-1"
   inkscape:connector-curvature="0"
   sodipodi:nodetypes="cccc" /><path
   d="m 244.31608,144.47883 41.79781,22.62945 -50.01717,1.53219 z"
   id="path963"
   inkscape:connector-curvature="0"
   style="opacity:1;fill:#fbe656;stroke:#000000;stroke-width:2;stroke-linecap:butt;stroke-linejoin:round" /><path
   d="m 237.88836,149.55246 44.58502,16.79979 -48.23254,0.83906 z"
   id="path965"
   inkscape:connector-curvature="0"
   style="opacity:1;fill:#a8a69d;stroke:#000000;stroke-width:2;stroke-linecap:butt;stroke-linejoin:round" /><path
   d="m 226.7531,163.69746 57.62848,3.32996 -58.09079,4.35874 z"
   id="path967"
   inkscape:connector-curvature="0"
   style="opacity:1;fill:#cbcbc8;stroke:#000000;stroke-width:2;stroke-linecap:butt;stroke-linejoin:round" /><path
   d="m 287.25306,166.80437 -67.08721,1.25177 -20.43937,63.82173 65.5193,-0.93427 z"
   id="path969"
   inkscape:connector-curvature="0"
   style="opacity:1;fill:#fbe656;stroke:#000000;stroke-width:2;stroke-linecap:butt;stroke-linejoin:round" /><path
   d="m 237.85941,175.65768 -0.0811,0.0163 c -3.54921,0.70853 -5.41293,6.18905 -4.16261,12.24099 v 0 c 1.25032,6.05193 5.14091,10.3833 8.68981,9.67477 l 0.0814,-0.0163 c 3.5489,-0.70853 5.41262,-6.18905 4.1623,-12.24098 v 0 c -1.25002,-6.05163 -5.1406,-10.38331 -8.68981,-9.67478 z"
   id="path973"
   inkscape:connector-curvature="0"
   style="opacity:1;fill:#a8a69d;stroke:#000000;stroke-width:2;stroke-linecap:butt;stroke-linejoin:round" /><path
   d="m 244.27717,189.80126 -0.26297,-0.0106 c -11.48327,-0.4605 -21.05307,4.9944 -21.37485,12.18403 v 0 c -0.32148,7.18962 8.7269,13.39134 20.21018,13.85184 l 0.26297,0.0105 c 11.48328,0.4605 21.0532,-4.9947 21.37482,-12.18403 v 0 c 0.32163,-7.18962 -8.72657,-13.39134 -20.21015,-13.85184 z"
   id="path975"
   inkscape:connector-curvature="0"
   style="opacity:1;fill:#030300;stroke:#000000;stroke-width:2;stroke-linecap:butt;stroke-linejoin:round" /><path
   d="m 245.88154,190.00228 -1.14929,25.692 c -1.82388,0.11127 -3.71662,-0.0797 -5.39393,-0.32159 l 1.13964,-25.48164 c 1.93528,-0.14331 3.57707,-0.10386 5.40358,0.11123 z m 2.86554,0.34356 c 1.85015,0.33483 3.55464,0.85893 5.16594,1.47283 l -1.016,22.70868 c -1.66106,0.48311 -3.40445,0.86857 -5.27872,1.05421 0.37583,-8.41193 0.75245,-16.82382 1.12878,-25.23572 z m -11.16602,-0.0961 -1.09742,24.53381 c -8.29264,-2.01078 -14.17662,-7.07932 -13.91848,-12.84706 0.25785,-5.76803 6.57368,-10.34714 15.0159,-11.68675 z m 19.15588,2.84257 c 4.80773,2.56562 7.8638,6.35301 7.67728,10.52225 -0.18652,4.16923 -3.57068,7.71612 -8.59044,9.88754 z"
   id="path977"
   inkscape:connector-curvature="0"
   style="opacity:1;fill:#fbe656;stroke:#000000;stroke-width:2;stroke-linecap:butt;stroke-linejoin:round"
   sodipodi:nodetypes="cccccccccccccccscc" /><path
   d="m 252.54478,176.57748 -0.0757,-0.0292 c -3.31127,-1.27723 -7.83304,2.35706 -10.09996,8.11726 v 0 c -2.26692,5.7602 -1.42041,11.46495 1.89085,12.74218 l 0.076,0.0292 c 3.31096,1.27723 7.83274,-2.35706 10.09966,-8.11726 v 0 c 2.26692,-5.7599 1.42041,-11.46495 -1.89086,-12.74218 z"
   id="path979"
   inkscape:connector-curvature="0"
   style="opacity:1;fill:#cbcbc8;stroke:#000000;stroke-width:2;stroke-linecap:butt;stroke-linejoin:round" /><path
   d="m 230.02607,200.61553 c 0.0543,-1.21454 -0.48373,-2.22234 -1.20207,-2.25128 -0.71835,-0.0286 -1.34471,0.93246 -1.399,2.14701 -0.0543,1.21454 0.48403,2.22234 1.20207,2.25097 0.71835,0.0289 1.34471,-0.93215 1.399,-2.1467 z"
   id="path981"
   inkscape:connector-curvature="0"
   style="opacity:1;fill:#030300;stroke:#000000;stroke-width:2;stroke-linecap:butt;stroke-linejoin:round" /><path
   d="m 220.60102,188.8034 c 0.79646,0.77273 3.13967,2.24495 3.81459,2.95228 2.10347,2.20457 1.90835,3.18796 1.90835,3.18796 l 1.53712,-1.16331 c 0,0 -1.35768,-1.71453 -2.39177,-2.46255 -2.45661,-1.77691 -5.85895,-3.47577 -4.86829,-2.51438 z"
   id="path983"
   inkscape:connector-curvature="0"
   style="opacity:1;fill:#030300;stroke:#000000;stroke-width:2;stroke-linecap:butt;stroke-linejoin:round" /><path
   d="m 223.25576,186.99304 c 0.70327,0.85771 2.86374,2.58369 3.45391,3.36245 1.83929,2.42728 1.5341,3.38294 1.5341,3.38294 l 1.65835,-0.98369 c 0,0 -1.15412,-1.85677 -2.09653,-2.7163 -2.23827,-2.04182 -5.42469,-4.11197 -4.54983,-3.0454 z"
   id="path985"
   inkscape:connector-curvature="0"
   style="opacity:1;fill:#030300;stroke:#000000;stroke-width:2;stroke-linecap:butt;stroke-linejoin:round" /></svg>