<?xml version="1.0" encoding="UTF-8" standalone="no"?>
<!-- Created with Vectornator for iOS (http://vectornator.io/) -->

<svg
   xmlns:vectornator="http://vectornator.io"
   xmlns:dc="http://purl.org/dc/elements/1.1/"
   xmlns:cc="http://creativecommons.org/ns#"
   xmlns:rdf="http://www.w3.org/1999/02/22-rdf-syntax-ns#"
   xmlns:svg="http://www.w3.org/2000/svg"
   xmlns="http://www.w3.org/2000/svg"
   xmlns:sodipodi="http://sodipodi.sourceforge.net/DTD/sodipodi-0.dtd"
   xmlns:inkscape="http://www.inkscape.org/namespaces/inkscape"
   style="clip-rule:evenodd;fill-rule:evenodd;stroke-linecap:round;stroke-linejoin:round"
   xml:space="preserve"
   version="1.1"
   viewBox="0 0 1280 640"
   id="svg35"
   sodipodi:docname="social.svg"
   inkscape:version="0.92.3 (2405546, 2018-03-11)"
   width="1280"
   height="640"
   inkscape:export-filename="C:\Users\rantenesse\Downloads\Personal Downloads\Readlebee_social.png"
   inkscape:export-xdpi="96"
   inkscape:export-ydpi="96"><sodipodi:namedview
   pagecolor="#ffffff"
   bordercolor="#666666"
   borderopacity="1"
   objecttolerance="10"
   gridtolerance="10"
   guidetolerance="10"
   inkscape:pageopacity="0"
   inkscape:pageshadow="2"
   inkscape:window-width="1409"
   inkscape:window-height="706"
   id="namedview37"
   showgrid="false"
   inkscape:zoom="0.5"
   inkscape:cx="604.74915"
   inkscape:cy="250.8411"
   inkscape:window-x="2398"
   inkscape:window-y="336"
   inkscape:window-maximized="0"
   inkscape:current-layer="svg35" />
<metadata
   id="metadata2">
<vectornator:setting
   key="DisplayWhiteBackground"
   value="0" />
<vectornator:setting
   key="RulersVisible"
   value="1" />
<vectornator:setting
   key="SnapToEdges"
   value="0" />
<vectornator:setting
   key="Units"
   value="Pixels" />
<vectornator:setting
   key="DynamicGuides"
   value="0" />
<vectornator:setting
   key="SnapToPoints"
   value="0" />
<vectornator:setting
   key="CMYKEnabledKey"
   value="0" />
<vectornator:setting
   key="SnapToGrid"
   value="0" />
<vectornator:setting
   key="SnapToGuides"
   value="1" />
<vectornator:setting
   key="ShowGrid"
   value="1" />
<vectornator:setting
   key="GridSpacing"
   value="36" />
<rdf:RDF><cc:Work
     rdf:about=""><dc:format>image/svg+xml</dc:format><dc:type
       rdf:resource="http://purl.org/dc/dcmitype/StillImage" /><dc:title /></cc:Work></rdf:RDF></metadata>
<defs
   id="defs4">




</defs>


<g
   id="g1062"
   transform="matrix(1.0509747,0,0,1.0515096,-40.385398,-54.950942)"
   style="stroke-width:0.95125568"><path
     id="path16-2-9"
     d="m 45.043411,337.26593 -0.07953,0.46571 c -3.498477,20.36786 21.933998,41.53808 56.804729,47.28409 v 0 c 34.87075,5.74604 65.97313,-6.1069 69.47099,-26.47315 l 0.0802,-0.46732 c 3.49786,-20.36628 -21.93462,-41.53647 -56.80535,-47.28248 v 0 c -34.86852,-5.74701 -65.972506,6.10529 -69.470983,26.47315 z"
     style="clip-rule:evenodd;opacity:1;fill:#a8a69d;fill-rule:evenodd;stroke:#000000;stroke-width:3.4341886;stroke-linecap:round;stroke-linejoin:round"
     inkscape:connector-curvature="0" /><path
     style="font-style:normal;font-variant:normal;font-weight:600;font-stretch:normal;font-size:231.32017517px;line-height:1.25;font-family:Remissis;-inkscape-font-specification:'Remissis Semi-Bold';letter-spacing:0px;word-spacing:0px;clip-rule:evenodd;fill:#fbe656;fill-opacity:1;fill-rule:evenodd;stroke:#000000;stroke-width:5.15128279;stroke-linecap:round;stroke-linejoin:round;stroke-miterlimit:4;stroke-dasharray:none;stroke-opacity:1"
     d="m 214.89609,431.29312 c 0.11131,22.79432 0.22265,45.58865 0.33397,68.38297 -18.66229,0.92052 -37.32458,1.84102 -55.98686,2.76154 L 156.13281,271.1596 c 41.64605,-19.74008 89.84579,-27.15449 135.28001,-18.3922 33.58515,5.3873 65.25867,29.87674 72.16518,64.21632 6.71244,32.27815 0.0908,69.89604 -26.41666,91.79925 -9.73158,3.32463 -7.20406,10.05284 -4.10061,17.26666 8.18523,24.42709 16.37046,48.85419 24.55569,73.28127 -17.9711,4.02723 -35.94219,8.05445 -53.91328,12.08169 -9.79194,-26.23451 -19.58388,-52.46905 -29.37582,-78.70356 -16.8718,4.79762 -48.36042,-5.17394 -59.43123,-1.41591 z m -0.0119,-123.23318 v 73.21561 c 25.62465,4.06371 54.83804,7.72304 77.75954,-7.24901 18.33014,-12.93309 21.09817,-43.0526 6.19781,-59.51444 -19.63771,-14.59801 -66.8022,-22.12655 -83.95735,-6.45216 z"
     id="path892"
     inkscape:connector-curvature="0"
     sodipodi:nodetypes="ccccccccccccccccc" /><path
     id="path22-0-4"
     d="m 75.622673,269.78931 -0.311326,0.34346 c -13.61061,15.028 -3.486168,46.5783 22.612136,70.4708 v 0 c 26.098307,23.8925 58.287377,31.07864 71.897997,16.05064 l 0.31195,-0.34507 c 13.61,-15.02639 3.48554,-46.5767 -22.61276,-70.46919 v 0 C 121.42399,261.94808 89.233295,254.76131 75.622673,269.78931 Z"
     style="clip-rule:evenodd;opacity:1;fill:#cbcbc8;fill-rule:evenodd;stroke:#000000;stroke-width:3.4341886;stroke-linecap:round;stroke-linejoin:round"
     inkscape:connector-curvature="0" /><path
     sodipodi:nodetypes="cccc"
     inkscape:connector-curvature="0"
     id="path26-5-0"
     d="M 339.65399,274.00283 329.5055,265.0236 c 15.49242,-16.79054 40.43768,-37.81563 60.92758,-47.40791 -11.66606,8.17545 -44.66548,45.20585 -50.77909,56.38714 z"
     style="clip-rule:evenodd;opacity:1;fill:#030300;fill-rule:evenodd;stroke:#000000;stroke-width:3.43418884;stroke-linecap:round;stroke-linejoin:round" /><path
     sodipodi:nodetypes="cccc"
     inkscape:connector-curvature="0"
     id="path28-1-5"
     d="m 320.3103,259.20884 -11.08478,-5.09128 c 13.49003,-18.43227 37.02006,-41.37715 56.29041,-53.2226 -12.13923,11.23607 -40.45172,46.64718 -45.20563,58.31388 z"
     style="clip-rule:evenodd;opacity:1;fill:#030300;fill-rule:evenodd;stroke:#000000;stroke-width:3.43418884;stroke-linecap:round;stroke-linejoin:round" /><path
     style="clip-rule:evenodd;opacity:1;fill:#fbe656;fill-rule:evenodd;stroke:#000000;stroke-width:3.4341886;stroke-linecap:butt;stroke-linejoin:round"
     inkscape:connector-curvature="0"
     id="path963-7"
     d="m 390.50044,347.75746 62.42685,33.78001 -74.70283,2.28717 z" /><path
     style="clip-rule:evenodd;opacity:1;fill:#a8a69d;fill-rule:evenodd;stroke:#000000;stroke-width:3.4341886;stroke-linecap:butt;stroke-linejoin:round"
     inkscape:connector-curvature="0"
     id="path965-4"
     d="m 380.90036,355.3311 66.58967,25.07781 -72.0374,1.2525 z" /><path
     style="clip-rule:evenodd;opacity:1;fill:#cbcbc8;fill-rule:evenodd;stroke:#000000;stroke-width:3.4341886;stroke-linecap:butt;stroke-linejoin:round"
     inkscape:connector-curvature="0"
     id="path967-9"
     d="m 364.26936,376.44598 86.07065,4.97078 -86.76114,6.5065 z" /><path
     style="clip-rule:evenodd;opacity:1;fill:#fbe656;fill-rule:evenodd;stroke:#000000;stroke-width:3.4341886;stroke-linecap:butt;stroke-linejoin:round"
     inkscape:connector-curvature="0"
     id="path969-2"
     d="m 454.62869,381.08381 -100.19768,1.86858 -30.52709,95.2696 97.85594,-1.39463 z" /><path
     style="clip-rule:evenodd;opacity:1;fill:#a8a69d;fill-rule:evenodd;stroke:#000000;stroke-width:3.4341886;stroke-linecap:butt;stroke-linejoin:round"
     inkscape:connector-curvature="0"
     id="path973-1"
     d="m 380.85712,394.29955 -0.12113,0.0243 c -5.3009,1.05766 -8.08444,9.23868 -6.21704,18.27269 v 0 c 1.86741,9.03399 7.67817,15.49963 12.97861,14.44197 l 0.12158,-0.0243 c 5.30043,-1.05766 8.08398,-9.23867 6.21657,-18.27266 v 0 C 391.96875,399.708 386.158,393.2419 380.8571,394.29956 Z" /><path
     style="clip-rule:evenodd;opacity:1;fill:#030300;fill-rule:evenodd;stroke:#000000;stroke-width:3.4341886;stroke-linecap:butt;stroke-linejoin:round"
     inkscape:connector-curvature="0"
     id="path975-2"
     d="m 390.44232,415.41232 -0.39276,-0.0158 c -17.15076,-0.68741 -31.44367,7.45537 -31.92427,18.18766 v 0 c -0.48014,10.73228 13.03401,19.98986 30.18478,20.67727 l 0.39277,0.0157 c 17.15078,0.68741 31.44387,-7.45582 31.92423,-18.18766 v 0 c 0.48036,-10.73227 -13.03352,-19.98986 -30.18475,-20.67727 z" /><path
     sodipodi:nodetypes="cccccccccccccccscc"
     style="clip-rule:evenodd;opacity:1;fill:#fbe656;fill-rule:evenodd;stroke:#000000;stroke-width:3.4341886;stroke-linecap:butt;stroke-linejoin:round"
     inkscape:connector-curvature="0"
     id="path977-4"
     d="m 392.83852,415.71238 -1.71652,38.35163 c -2.72404,0.16609 -5.55093,-0.11898 -8.05607,-0.48006 l 1.70211,-38.0376 c 2.89042,-0.21393 5.3425,-0.15504 8.07048,0.16603 z m 4.2798,0.51285 c 2.76329,0.49982 5.30902,1.28217 7.71556,2.19857 l -1.51743,33.89827 c -2.48087,0.72117 -5.0847,1.29656 -7.88401,1.57367 0.56132,-12.55687 1.12382,-25.11368 1.68588,-37.67051 z m -16.67693,-0.14345 -1.63905,36.62273 c -12.38542,-3.00158 -21.1734,-10.56762 -20.78785,-19.17739 0.38511,-8.6102 9.81808,-15.44564 22.4269,-17.44534 z m 28.61014,4.24323 c 7.18055,3.82983 11.74493,9.48343 11.46635,15.70704 -0.27857,6.2236 -5.33297,11.51821 -12.83019,14.75959 z" /><path
     style="clip-rule:evenodd;opacity:1;fill:#cbcbc8;fill-rule:evenodd;stroke:#000000;stroke-width:3.4341886;stroke-linecap:butt;stroke-linejoin:round"
     inkscape:connector-curvature="0"
     id="path979-7"
     d="m 402.79035,395.67257 -0.11305,-0.0436 c -4.94553,-1.90657 -11.69899,3.5185 -15.08473,12.11701 v 0 c -3.38575,8.59851 -2.12145,17.11425 2.82406,19.02083 l 0.11351,0.0436 c 4.94506,1.90658 11.69854,-3.51849 15.08428,-12.117 v 0 c 3.38575,-8.59807 2.12145,-17.11425 -2.82407,-19.02084 z" /><path
     style="clip-rule:evenodd;opacity:1;fill:#030300;fill-rule:evenodd;stroke:#000000;stroke-width:3.4341886;stroke-linecap:butt;stroke-linejoin:round"
     inkscape:connector-curvature="0"
     id="path981-1"
     d="m 369.15768,431.55527 c 0.0811,-1.81301 -0.72247,-3.31739 -1.79534,-3.36059 -1.07289,-0.0427 -2.00839,1.39192 -2.08947,3.20494 -0.0811,1.813 0.72292,3.31739 1.79534,3.36013 1.07289,0.0432 2.00838,-1.39147 2.08947,-3.20448 z" /><path
     style="clip-rule:evenodd;opacity:1;fill:#030300;fill-rule:evenodd;stroke:#000000;stroke-width:3.4341886;stroke-linecap:butt;stroke-linejoin:round"
     inkscape:connector-curvature="0"
     id="path983-7"
     d="m 355.08095,413.92276 c 1.18955,1.15349 4.68924,3.35115 5.69726,4.40701 3.14163,3.29085 2.85021,4.75881 2.85021,4.75881 l 2.29576,-1.73653 c 0,0 -2.02776,-2.55935 -3.57222,-3.67596 -3.66906,-2.65247 -8.7506,-5.18844 -7.27101,-3.75333 z" /><path
     style="clip-rule:evenodd;opacity:1;fill:#030300;fill-rule:evenodd;stroke:#000000;stroke-width:3.4341886;stroke-linecap:butt;stroke-linejoin:round"
     inkscape:connector-curvature="0"
     id="path985-8"
     d="m 359.04593,411.22036 c 1.05036,1.28034 4.27712,3.85679 5.15856,5.01928 2.74707,3.62331 2.29124,5.04987 2.29124,5.04987 l 2.47683,-1.4684 c 0,0 -1.72373,-2.77169 -3.13127,-4.05474 -3.34295,-3.04793 -8.10201,-6.13813 -6.79536,-4.54601 z" /><path
     d="m 454.89948,447.09308 c 3.23201,15.69763 13.18656,23.54646 29.86367,23.54646 10.20159,-0.0583 19.7822,-3.75243 27.34271,-9.14614 l 11.82911,21.40586 c -13.20074,8.83938 -28.63225,13.54278 -43.05022,13.62191 -15.34179,-0.2077 -30.40921,-4.92764 -40.52926,-15.1787 -10.977,-11.92756 -14.8531,-27.99161 -14.93182,-42.42253 0.18422,-14.51829 3.59213,-29.21522 12.60479,-39.50355 11.13791,-12.11288 27.55187,-16.26165 41.8867,-16.34629 12.50426,0.22696 25.25127,2.59287 34.71165,9.72993 10.09158,7.93516 14.08092,20.51022 14.15615,31.7196 -0.0222,7.27784 -1.2881,14.39603 -3.10272,20.82207 z m 24.82175,-41.25493 c -16.35502,0.8116 -23.4341,8.27789 -25.4035,22.76806 l 47.7043,-0.19461 v -1.55679 c -0.8204,-15.21817 -9.29989,-20.89336 -22.3008,-21.01666 z"
     style="font-style:normal;font-variant:normal;font-weight:600;font-stretch:normal;font-size:171.95491028px;line-height:1.25;font-family:Remissis;-inkscape-font-specification:'Remissis Semi-Bold';letter-spacing:0px;word-spacing:0px;fill:#fbe656;fill-opacity:1;stroke:#000000;stroke-width:4.75627851;stroke-miterlimit:4;stroke-dasharray:none;stroke-opacity:1"
     id="path917"
     inkscape:connector-curvature="0"
     sodipodi:nodetypes="cccccccccccccccccc" /><path
     d="m 607.65901,493.79678 c -0.65529,-3.31547 -0.8975,-7.09022 -1.35743,-10.11913 -13.85197,5.38763 -27.71318,12.40555 -41.8867,10.89753 -20.36543,-2.16683 -32.07698,-12.17847 -32.19071,-30.9412 4.88052,-27.71873 23.37045,-30.59779 44.98942,-32.88719 8.79104,-0.90812 17.84064,-1.55679 27.14879,-1.94599 -1.13021,-13.22888 -10.56075,-19.55733 -21.33119,-19.65446 -3.36127,0 -6.65792,0.38919 -9.88991,1.16759 -8.65079,2.49079 -17.11209,5.09692 -22.49471,11.87052 l -13.76832,-21.01666 c 13.97058,-13.11195 33.01191,-17.99563 50.22526,-18.09769 13.38651,0.14971 27.26306,3.55336 35.48734,13.42732 8.08423,10.44738 10.21754,23.82754 10.47168,35.61157 1.51103,21.60878 -0.85903,41.15074 2.52095,59.93641 z m -2.52095,-28.8006 c -0.40676,-6.6001 -0.38784,-12.25853 -0.38784,-19.07068 -11.20304,1.47318 -21.88377,1.56707 -32.38462,4.86497 -5.42983,1.70529 -9.55686,5.71367 -9.50208,10.89752 0.0758,7.16653 6.08602,11.09252 12.02303,10.89754 10.78203,-0.35411 20.75646,-4.19939 30.25151,-7.58935 z"
     style="font-style:normal;font-variant:normal;font-weight:600;font-stretch:normal;font-size:171.95491028px;line-height:1.25;font-family:Remissis;-inkscape-font-specification:'Remissis Semi-Bold';letter-spacing:0px;word-spacing:0px;fill:#fbe656;fill-opacity:1;stroke:#000000;stroke-width:4.75627851;stroke-miterlimit:4;stroke-dasharray:none;stroke-opacity:1"
     id="path919"
     inkscape:connector-curvature="0"
     sodipodi:nodetypes="ccsccccccccccccccsssc" /><path
     d="m 748.91062,489.90481 -26.56703,1.55679 -1.74528,-12.25973 c -4.52479,4.02172 -9.69599,7.20017 -15.51359,9.53535 -12.14537,4.37007 -25.19804,4.66622 -36.45694,0.1946 -20.33988,-8.80313 -26.67061,-31.01807 -26.76094,-50.20648 0.19928,-15.48249 3.73497,-31.13751 13.76831,-42.03333 8.31599,-8.69482 19.6357,-13.15118 30.63934,-13.23271 11.53982,0.31838 22.54766,4.05148 31.60894,9.72993 l -0.58175,-43.97931 31.60894,-1.75139 z m -54.10365,-22.76805 c 7.88607,0 15.83679,-3.11358 23.85214,-9.34075 l -0.58175,-40.67113 c -6.88406,-4.16731 -14.53899,-7.35563 -22.10687,-7.39475 -16.19462,-0.0837 -24.99139,14.73724 -25.20959,29.18981 0.7859,16.61988 8.1171,28.01187 24.04607,28.21682 z"
     style="font-style:normal;font-variant:normal;font-weight:600;font-stretch:normal;font-size:171.95491028px;line-height:1.25;font-family:Remissis;-inkscape-font-specification:'Remissis Semi-Bold';letter-spacing:0px;word-spacing:0px;fill:#fbe656;fill-opacity:1;stroke:#000000;stroke-width:4.75627851;stroke-miterlimit:4;stroke-dasharray:none;stroke-opacity:1"
     id="path921"
     inkscape:connector-curvature="0"
     sodipodi:nodetypes="cccccccccccccccscc" /><path
     d="m 793.91734,490.09941 -29.66975,1.55679 -2.71488,-142.25168 31.80286,-1.75138 z"
     style="font-style:normal;font-variant:normal;font-weight:600;font-stretch:normal;font-size:171.95491028px;line-height:1.25;font-family:Remissis;-inkscape-font-specification:'Remissis Semi-Bold';letter-spacing:0px;word-spacing:0px;fill:#fbe656;fill-opacity:1;stroke:#000000;stroke-width:4.75627851;stroke-miterlimit:4;stroke-dasharray:none;stroke-opacity:1"
     id="path923"
     inkscape:connector-curvature="0" /><path
     sodipodi:nodetypes="cccccsccccccsccsss"
     d="m 949.7787,393.96763 c 9.40072,-6.92458 20.79424,-10.44459 31.41503,-10.50833 12.00026,0.18385 23.66447,4.45212 31.22107,12.64892 9.8431,10.96692 12.5429,25.97305 12.6048,38.91975 -0.2684,15.64014 -3.9701,31.28191 -13.5744,42.61713 -8.3308,9.27193 -19.80697,14.66925 -31.22108,14.59489 -11.71843,-0.0764 -22.76553,-4.27645 -31.60894,-10.50832 l -0.58176,8.36774 -27.53663,1.55679 -2.71488,-142.25168 31.80287,-1.75138 z m 23.07647,14.78951 c -8.70411,-0.0379 -16.61927,3.7427 -23.07647,8.17314 l 0.19392,41.25493 c 6.68773,4.35067 14.13753,9.0075 21.52511,7.78395 18.512,-3.06599 24.75981,-14.31481 24.4339,-30.3574 -0.33079,-16.2834 -7.58884,-26.78724 -23.07646,-26.85462 z"
     style="font-style:normal;font-variant:normal;font-weight:600;font-stretch:normal;font-size:171.95491028px;line-height:1.25;font-family:Remissis;-inkscape-font-specification:'Remissis Semi-Bold';letter-spacing:0px;word-spacing:0px;fill:#fbe656;fill-opacity:1;stroke:#000000;stroke-width:4.75627851;stroke-miterlimit:4;stroke-dasharray:none;stroke-opacity:1"
     id="path927"
     inkscape:connector-curvature="0" /><path
     d="m 834.05789,447.09308 c 3.23201,15.69763 13.18656,23.54646 29.86367,23.54646 10.20159,-0.0583 19.7822,-3.75243 27.3427,-9.14614 l 11.82912,21.40586 c -13.20074,8.83938 -28.63225,13.54278 -43.05022,13.62191 -15.34179,-0.2077 -30.40921,-4.92764 -40.52926,-15.1787 -10.977,-11.92756 -14.8531,-27.99161 -14.93182,-42.42253 0.18422,-14.51829 3.59213,-29.21522 12.60479,-39.50355 11.13791,-12.11288 27.55186,-16.26165 41.8867,-16.34629 12.50425,0.22696 25.25127,2.59287 34.71165,9.72993 10.09157,7.93516 14.08092,20.51022 14.15615,31.7196 -0.0222,7.27784 -1.2881,14.39603 -3.10272,20.82207 z m 24.82175,-41.25493 c -16.35503,0.8116 -23.4341,8.27789 -25.4035,22.76806 l 47.7043,-0.19461 v -1.55679 c -0.8204,-15.21817 -9.29989,-20.89336 -22.3008,-21.01666 z"
     style="font-style:normal;font-variant:normal;font-weight:600;font-stretch:normal;font-size:171.95491028px;line-height:1.25;font-family:Remissis;-inkscape-font-specification:'Remissis Semi-Bold';letter-spacing:0px;word-spacing:0px;clip-rule:evenodd;fill:#fbe656;fill-opacity:1;fill-rule:evenodd;stroke:#000000;stroke-width:4.75627851;stroke-linecap:round;stroke-linejoin:round;stroke-miterlimit:4;stroke-dasharray:none;stroke-opacity:1"
     id="path917-3"
     inkscape:connector-curvature="0"
     sodipodi:nodetypes="cccccccccccccccccc" /><path
     d="m 1063.3887,447.09308 c 3.232,15.69763 13.1866,23.54646 29.8638,23.54646 10.2015,-0.0583 19.7821,-3.75243 27.3426,-9.14614 l 11.8292,21.40586 c -13.2009,8.83938 -28.6324,13.54278 -43.0502,13.62191 -15.3419,-0.2077 -30.4092,-4.92764 -40.5293,-15.1787 -10.9771,-11.92756 -14.8531,-27.99161 -14.9318,-42.42253 0.1841,-14.51829 3.592,-29.21522 12.6047,-39.50355 11.138,-12.11288 27.5518,-16.26165 41.8867,-16.34629 12.5043,0.22696 25.2513,2.59287 34.7117,9.72993 10.0915,7.93516 14.0809,20.51022 14.1561,31.7196 -0.023,7.27784 -1.2881,14.39603 -3.1027,20.82207 z m 24.8218,-41.25493 c -16.3551,0.8116 -23.4341,8.27789 -25.4036,22.76806 l 47.7044,-0.19461 v -1.55679 c -0.8204,-15.21817 -9.2998,-20.89336 -22.3008,-21.01666 z"
     style="font-style:normal;font-variant:normal;font-weight:600;font-stretch:normal;font-size:171.95491028px;line-height:1.25;font-family:Remissis;-inkscape-font-specification:'Remissis Semi-Bold';letter-spacing:0px;word-spacing:0px;clip-rule:evenodd;fill:#fbe656;fill-opacity:1;fill-rule:evenodd;stroke:#000000;stroke-width:4.75627851;stroke-linecap:round;stroke-linejoin:round;stroke-miterlimit:4;stroke-dasharray:none;stroke-opacity:1"
     id="path917-3-4"
     inkscape:connector-curvature="0"
     sodipodi:nodetypes="cccccccccccccccccc" /><path
     d="m 1175.5839,447.09308 c 3.232,15.69763 13.1865,23.54646 29.8636,23.54646 10.2016,-0.0583 19.7822,-3.75243 27.3428,-9.14614 l 11.829,21.40586 c -13.2007,8.83938 -28.6322,13.54278 -43.0502,13.62191 -15.3417,-0.2077 -30.4092,-4.92764 -40.5292,-15.1787 -10.977,-11.92756 -14.8531,-27.99161 -14.9319,-42.42253 0.1843,-14.51829 3.5922,-29.21522 12.6048,-39.50355 11.138,-12.11288 27.5519,-16.26165 41.8868,-16.34629 12.5042,0.22696 25.2513,2.59287 34.7116,9.72993 10.0916,7.93516 14.0809,20.51022 14.1562,31.7196 -0.023,7.27784 -1.2881,14.39603 -3.1028,20.82207 z m 24.8217,-41.25493 c -16.355,0.8116 -23.434,8.27789 -25.4035,22.76806 l 47.7043,-0.19461 v -1.55679 c -0.8203,-15.21817 -9.2999,-20.89336 -22.3008,-21.01666 z"
     style="font-style:normal;font-variant:normal;font-weight:600;font-stretch:normal;font-size:171.95491028px;line-height:1.25;font-family:Remissis;-inkscape-font-specification:'Remissis Semi-Bold';letter-spacing:0px;word-spacing:0px;clip-rule:evenodd;fill:#fbe656;fill-opacity:1;fill-rule:evenodd;stroke:#000000;stroke-width:4.75627851;stroke-linecap:round;stroke-linejoin:round;stroke-miterlimit:4;stroke-dasharray:none;stroke-opacity:1"
     id="path917-3-2"
     inkscape:connector-curvature="0"
     sodipodi:nodetypes="cccccccccccccccccc" /></g></svg>